<mxfile host="app.diagrams.net" agent="Mozilla/5.0 (Windows NT 10.0; Win64; x64) AppleWebKit/537.36 (KHTML, like Gecko) Chrome/135.0.0.0 Safari/537.36" version="26.2.13">
  <diagram name="PÃ¡gina-1" id="LfmOkD2_86psc7wjXgWg">
    <mxGraphModel dx="2660" dy="764" grid="1" gridSize="10" guides="1" tooltips="1" connect="1" arrows="1" fold="1" page="1" pageScale="1" pageWidth="827" pageHeight="1169" math="0" shadow="0">
      <root>
        <mxCell id="0" />
        <mxCell id="1" parent="0" />
        <mxCell id="JE6kaFAAXkQqQsIvlGsE-1" value="CRC16_Calculator" style="swimlane;fontStyle=1;align=center;verticalAlign=top;childLayout=stackLayout;horizontal=1;startSize=26;horizontalStack=0;resizeParent=1;resizeParentMax=0;resizeLast=0;collapsible=1;marginBottom=0;whiteSpace=wrap;html=1;" parent="1" vertex="1">
          <mxGeometry x="100" y="60" width="160" height="74" as="geometry" />
        </mxCell>
        <mxCell id="JE6kaFAAXkQqQsIvlGsE-3" value="" style="line;strokeWidth=1;fillColor=none;align=left;verticalAlign=middle;spacingTop=-1;spacingLeft=3;spacingRight=3;rotatable=0;labelPosition=right;points=[];portConstraint=eastwest;strokeColor=inherit;" parent="JE6kaFAAXkQqQsIvlGsE-1" vertex="1">
          <mxGeometry y="26" width="160" height="8" as="geometry" />
        </mxCell>
        <mxCell id="JE6kaFAAXkQqQsIvlGsE-4" value="+ crcFor(data:String): Integer" style="text;strokeColor=none;fillColor=none;align=left;verticalAlign=top;spacingLeft=4;spacingRight=4;overflow=hidden;rotatable=0;points=[[0,0.5],[1,0.5]];portConstraint=eastwest;whiteSpace=wrap;html=1;" parent="JE6kaFAAXkQqQsIvlGsE-1" vertex="1">
          <mxGeometry y="34" width="160" height="40" as="geometry" />
        </mxCell>
        <mxCell id="JE6kaFAAXkQqQsIvlGsE-5" value="CRC32_Calculator" style="swimlane;fontStyle=1;align=center;verticalAlign=top;childLayout=stackLayout;horizontal=1;startSize=26;horizontalStack=0;resizeParent=1;resizeParentMax=0;resizeLast=0;collapsible=1;marginBottom=0;whiteSpace=wrap;html=1;" parent="1" vertex="1">
          <mxGeometry x="580" y="70" width="160" height="74" as="geometry" />
        </mxCell>
        <mxCell id="JE6kaFAAXkQqQsIvlGsE-6" value="" style="line;strokeWidth=1;fillColor=none;align=left;verticalAlign=middle;spacingTop=-1;spacingLeft=3;spacingRight=3;rotatable=0;labelPosition=right;points=[];portConstraint=eastwest;strokeColor=inherit;" parent="JE6kaFAAXkQqQsIvlGsE-5" vertex="1">
          <mxGeometry y="26" width="160" height="8" as="geometry" />
        </mxCell>
        <mxCell id="JE6kaFAAXkQqQsIvlGsE-7" value="+ crcFor(data:String): Integer" style="text;strokeColor=none;fillColor=none;align=left;verticalAlign=top;spacingLeft=4;spacingRight=4;overflow=hidden;rotatable=0;points=[[0,0.5],[1,0.5]];portConstraint=eastwest;whiteSpace=wrap;html=1;" parent="JE6kaFAAXkQqQsIvlGsE-5" vertex="1">
          <mxGeometry y="34" width="160" height="40" as="geometry" />
        </mxCell>
        <mxCell id="JE6kaFAAXkQqQsIvlGsE-8" value="&lt;span style=&quot;font-weight: normal;&quot;&gt;&amp;lt;Context&amp;gt;&lt;/span&gt;&lt;br&gt;Dispositivo" style="swimlane;fontStyle=1;align=center;verticalAlign=top;childLayout=stackLayout;horizontal=1;startSize=40;horizontalStack=0;resizeParent=1;resizeParentMax=0;resizeLast=0;collapsible=1;marginBottom=0;whiteSpace=wrap;html=1;" parent="1" vertex="1">
          <mxGeometry x="339" y="248.57" width="160" height="74" as="geometry" />
        </mxCell>
        <mxCell id="JE6kaFAAXkQqQsIvlGsE-9" value="" style="line;strokeWidth=1;fillColor=none;align=left;verticalAlign=middle;spacingTop=-1;spacingLeft=3;spacingRight=3;rotatable=0;labelPosition=right;points=[];portConstraint=eastwest;strokeColor=inherit;" parent="JE6kaFAAXkQqQsIvlGsE-8" vertex="1">
          <mxGeometry y="40" width="160" height="8" as="geometry" />
        </mxCell>
        <mxCell id="JE6kaFAAXkQqQsIvlGsE-10" value="+ send(data:String): String" style="text;strokeColor=none;fillColor=none;align=left;verticalAlign=top;spacingLeft=4;spacingRight=4;overflow=hidden;rotatable=0;points=[[0,0.5],[1,0.5]];portConstraint=eastwest;whiteSpace=wrap;html=1;" parent="JE6kaFAAXkQqQsIvlGsE-8" vertex="1">
          <mxGeometry y="48" width="160" height="26" as="geometry" />
        </mxCell>
        <mxCell id="JE6kaFAAXkQqQsIvlGsE-11" value="Ringer" style="swimlane;fontStyle=1;align=center;verticalAlign=top;childLayout=stackLayout;horizontal=1;startSize=26;horizontalStack=0;resizeParent=1;resizeParentMax=0;resizeLast=0;collapsible=1;marginBottom=0;whiteSpace=wrap;html=1;" parent="1" vertex="1">
          <mxGeometry x="590" y="255.57" width="160" height="60" as="geometry" />
        </mxCell>
        <mxCell id="JE6kaFAAXkQqQsIvlGsE-12" value="" style="line;strokeWidth=1;fillColor=none;align=left;verticalAlign=middle;spacingTop=-1;spacingLeft=3;spacingRight=3;rotatable=0;labelPosition=right;points=[];portConstraint=eastwest;strokeColor=inherit;" parent="JE6kaFAAXkQqQsIvlGsE-11" vertex="1">
          <mxGeometry y="26" width="160" height="8" as="geometry" />
        </mxCell>
        <mxCell id="JE6kaFAAXkQqQsIvlGsE-13" value="+ ring()" style="text;strokeColor=none;fillColor=none;align=left;verticalAlign=top;spacingLeft=4;spacingRight=4;overflow=hidden;rotatable=0;points=[[0,0.5],[1,0.5]];portConstraint=eastwest;whiteSpace=wrap;html=1;" parent="JE6kaFAAXkQqQsIvlGsE-11" vertex="1">
          <mxGeometry y="34" width="160" height="26" as="geometry" />
        </mxCell>
        <mxCell id="JE6kaFAAXkQqQsIvlGsE-14" value="Display" style="swimlane;fontStyle=1;align=center;verticalAlign=top;childLayout=stackLayout;horizontal=1;startSize=26;horizontalStack=0;resizeParent=1;resizeParentMax=0;resizeLast=0;collapsible=1;marginBottom=0;whiteSpace=wrap;html=1;" parent="1" vertex="1">
          <mxGeometry x="324" y="378.57" width="190" height="60" as="geometry" />
        </mxCell>
        <mxCell id="JE6kaFAAXkQqQsIvlGsE-15" value="" style="line;strokeWidth=1;fillColor=none;align=left;verticalAlign=middle;spacingTop=-1;spacingLeft=3;spacingRight=3;rotatable=0;labelPosition=right;points=[];portConstraint=eastwest;strokeColor=inherit;" parent="JE6kaFAAXkQqQsIvlGsE-14" vertex="1">
          <mxGeometry y="26" width="190" height="8" as="geometry" />
        </mxCell>
        <mxCell id="JE6kaFAAXkQqQsIvlGsE-16" value="+ showBanner(img:String):String" style="text;strokeColor=none;fillColor=none;align=left;verticalAlign=top;spacingLeft=4;spacingRight=4;overflow=hidden;rotatable=0;points=[[0,0.5],[1,0.5]];portConstraint=eastwest;whiteSpace=wrap;html=1;" parent="JE6kaFAAXkQqQsIvlGsE-14" vertex="1">
          <mxGeometry y="34" width="190" height="26" as="geometry" />
        </mxCell>
        <mxCell id="JE6kaFAAXkQqQsIvlGsE-17" value="&lt;span style=&quot;font-weight: normal;&quot;&gt;&amp;lt;Strategy&amp;gt;&lt;/span&gt;&lt;br&gt;Connection" style="swimlane;fontStyle=1;align=center;verticalAlign=top;childLayout=stackLayout;horizontal=1;startSize=40;horizontalStack=0;resizeParent=1;resizeParentMax=0;resizeLast=0;collapsible=1;marginBottom=0;whiteSpace=wrap;html=1;" parent="1" vertex="1">
          <mxGeometry x="40" y="230.57" width="160" height="110" as="geometry" />
        </mxCell>
        <mxCell id="JE6kaFAAXkQqQsIvlGsE-18" value="" style="line;strokeWidth=1;fillColor=none;align=left;verticalAlign=middle;spacingTop=-1;spacingLeft=3;spacingRight=3;rotatable=0;labelPosition=right;points=[];portConstraint=eastwest;strokeColor=inherit;" parent="JE6kaFAAXkQqQsIvlGsE-17" vertex="1">
          <mxGeometry y="40" width="160" height="8" as="geometry" />
        </mxCell>
        <mxCell id="JE6kaFAAXkQqQsIvlGsE-19" value="+ sendData (data:String, crc:Integer): String" style="text;strokeColor=none;fillColor=none;align=left;verticalAlign=top;spacingLeft=4;spacingRight=4;overflow=hidden;rotatable=0;points=[[0,0.5],[1,0.5]];portConstraint=eastwest;whiteSpace=wrap;html=1;" parent="JE6kaFAAXkQqQsIvlGsE-17" vertex="1">
          <mxGeometry y="48" width="160" height="36" as="geometry" />
        </mxCell>
        <mxCell id="JE6kaFAAXkQqQsIvlGsE-20" value="+ pict():String" style="text;strokeColor=none;fillColor=none;align=left;verticalAlign=top;spacingLeft=4;spacingRight=4;overflow=hidden;rotatable=0;points=[[0,0.5],[1,0.5]];portConstraint=eastwest;whiteSpace=wrap;html=1;" parent="JE6kaFAAXkQqQsIvlGsE-17" vertex="1">
          <mxGeometry y="84" width="160" height="26" as="geometry" />
        </mxCell>
        <mxCell id="JE6kaFAAXkQqQsIvlGsE-21" value="&lt;span style=&quot;font-weight: normal;&quot;&gt;&amp;lt;StrategyA&amp;gt;&lt;/span&gt;&lt;br&gt;WifiConn" style="swimlane;fontStyle=1;align=center;verticalAlign=top;childLayout=stackLayout;horizontal=1;startSize=42;horizontalStack=0;resizeParent=1;resizeParentMax=0;resizeLast=0;collapsible=1;marginBottom=0;whiteSpace=wrap;html=1;" parent="1" vertex="1">
          <mxGeometry x="-120" y="426.57" width="160" height="138" as="geometry" />
        </mxCell>
        <mxCell id="JE6kaFAAXkQqQsIvlGsE-25" value="- pict: String" style="text;strokeColor=none;fillColor=none;align=left;verticalAlign=top;spacingLeft=4;spacingRight=4;overflow=hidden;rotatable=0;points=[[0,0.5],[1,0.5]];portConstraint=eastwest;whiteSpace=wrap;html=1;" parent="JE6kaFAAXkQqQsIvlGsE-21" vertex="1">
          <mxGeometry y="42" width="160" height="26" as="geometry" />
        </mxCell>
        <mxCell id="JE6kaFAAXkQqQsIvlGsE-22" value="" style="line;strokeWidth=1;fillColor=none;align=left;verticalAlign=middle;spacingTop=-1;spacingLeft=3;spacingRight=3;rotatable=0;labelPosition=right;points=[];portConstraint=eastwest;strokeColor=inherit;" parent="JE6kaFAAXkQqQsIvlGsE-21" vertex="1">
          <mxGeometry y="68" width="160" height="8" as="geometry" />
        </mxCell>
        <mxCell id="JE6kaFAAXkQqQsIvlGsE-23" value="+ sendData (data:String, crc:Integer): String" style="text;strokeColor=none;fillColor=none;align=left;verticalAlign=top;spacingLeft=4;spacingRight=4;overflow=hidden;rotatable=0;points=[[0,0.5],[1,0.5]];portConstraint=eastwest;whiteSpace=wrap;html=1;" parent="JE6kaFAAXkQqQsIvlGsE-21" vertex="1">
          <mxGeometry y="76" width="160" height="36" as="geometry" />
        </mxCell>
        <mxCell id="JE6kaFAAXkQqQsIvlGsE-24" value="+ pict():String" style="text;strokeColor=none;fillColor=none;align=left;verticalAlign=top;spacingLeft=4;spacingRight=4;overflow=hidden;rotatable=0;points=[[0,0.5],[1,0.5]];portConstraint=eastwest;whiteSpace=wrap;html=1;" parent="JE6kaFAAXkQqQsIvlGsE-21" vertex="1">
          <mxGeometry y="112" width="160" height="26" as="geometry" />
        </mxCell>
        <mxCell id="JE6kaFAAXkQqQsIvlGsE-26" value="&lt;span style=&quot;font-weight: normal;&quot;&gt;&amp;lt;Adaptee&amp;gt;&lt;/span&gt;&lt;br&gt;4GConnection" style="swimlane;fontStyle=1;align=center;verticalAlign=top;childLayout=stackLayout;horizontal=1;startSize=40;horizontalStack=0;resizeParent=1;resizeParentMax=0;resizeLast=0;collapsible=1;marginBottom=0;whiteSpace=wrap;html=1;" parent="1" vertex="1">
          <mxGeometry x="120" y="618.57" width="160" height="110" as="geometry" />
        </mxCell>
        <mxCell id="JE6kaFAAXkQqQsIvlGsE-27" value="- symb: String" style="text;strokeColor=none;fillColor=none;align=left;verticalAlign=top;spacingLeft=4;spacingRight=4;overflow=hidden;rotatable=0;points=[[0,0.5],[1,0.5]];portConstraint=eastwest;whiteSpace=wrap;html=1;" parent="JE6kaFAAXkQqQsIvlGsE-26" vertex="1">
          <mxGeometry y="40" width="160" height="26" as="geometry" />
        </mxCell>
        <mxCell id="JE6kaFAAXkQqQsIvlGsE-28" value="" style="line;strokeWidth=1;fillColor=none;align=left;verticalAlign=middle;spacingTop=-1;spacingLeft=3;spacingRight=3;rotatable=0;labelPosition=right;points=[];portConstraint=eastwest;strokeColor=inherit;" parent="JE6kaFAAXkQqQsIvlGsE-26" vertex="1">
          <mxGeometry y="66" width="160" height="8" as="geometry" />
        </mxCell>
        <mxCell id="JE6kaFAAXkQqQsIvlGsE-29" value="+ transmit(data:String, crc:Integer): String" style="text;strokeColor=none;fillColor=none;align=left;verticalAlign=top;spacingLeft=4;spacingRight=4;overflow=hidden;rotatable=0;points=[[0,0.5],[1,0.5]];portConstraint=eastwest;whiteSpace=wrap;html=1;" parent="JE6kaFAAXkQqQsIvlGsE-26" vertex="1">
          <mxGeometry y="74" width="160" height="36" as="geometry" />
        </mxCell>
        <mxCell id="S5mDsbCWEBggxdEjm5oJ-1" value="" style="endArrow=classic;html=1;rounded=0;" parent="1" source="JE6kaFAAXkQqQsIvlGsE-8" target="DESya9jkamPEPTqDq0Sg-1" edge="1">
          <mxGeometry width="50" height="50" relative="1" as="geometry">
            <mxPoint x="410" y="210" as="sourcePoint" />
            <mxPoint x="440" y="260" as="targetPoint" />
          </mxGeometry>
        </mxCell>
        <mxCell id="S5mDsbCWEBggxdEjm5oJ-2" value="crcCalculator" style="edgeLabel;html=1;align=center;verticalAlign=middle;resizable=0;points=[];" parent="S5mDsbCWEBggxdEjm5oJ-1" vertex="1" connectable="0">
          <mxGeometry x="-0.085" y="1" relative="1" as="geometry">
            <mxPoint as="offset" />
          </mxGeometry>
        </mxCell>
        <mxCell id="S5mDsbCWEBggxdEjm5oJ-3" value="" style="endArrow=classic;html=1;rounded=0;" parent="1" source="JE6kaFAAXkQqQsIvlGsE-8" target="JE6kaFAAXkQqQsIvlGsE-11" edge="1">
          <mxGeometry width="50" height="50" relative="1" as="geometry">
            <mxPoint x="380" y="358.57" as="sourcePoint" />
            <mxPoint x="430" y="308.57" as="targetPoint" />
          </mxGeometry>
        </mxCell>
        <mxCell id="S5mDsbCWEBggxdEjm5oJ-6" value="ringer" style="edgeLabel;html=1;align=center;verticalAlign=middle;resizable=0;points=[];" parent="S5mDsbCWEBggxdEjm5oJ-3" vertex="1" connectable="0">
          <mxGeometry x="-0.3538" y="1" relative="1" as="geometry">
            <mxPoint as="offset" />
          </mxGeometry>
        </mxCell>
        <mxCell id="S5mDsbCWEBggxdEjm5oJ-4" value="" style="endArrow=classic;html=1;rounded=0;" parent="1" source="JE6kaFAAXkQqQsIvlGsE-8" target="JE6kaFAAXkQqQsIvlGsE-14" edge="1">
          <mxGeometry width="50" height="50" relative="1" as="geometry">
            <mxPoint x="380" y="358.57" as="sourcePoint" />
            <mxPoint x="430" y="308.57" as="targetPoint" />
          </mxGeometry>
        </mxCell>
        <mxCell id="S5mDsbCWEBggxdEjm5oJ-5" value="display" style="edgeLabel;html=1;align=center;verticalAlign=middle;resizable=0;points=[];" parent="S5mDsbCWEBggxdEjm5oJ-4" vertex="1" connectable="0">
          <mxGeometry x="0.0733" relative="1" as="geometry">
            <mxPoint as="offset" />
          </mxGeometry>
        </mxCell>
        <mxCell id="S5mDsbCWEBggxdEjm5oJ-7" value="" style="endArrow=classic;html=1;rounded=0;" parent="1" source="JE6kaFAAXkQqQsIvlGsE-8" target="JE6kaFAAXkQqQsIvlGsE-17" edge="1">
          <mxGeometry width="50" height="50" relative="1" as="geometry">
            <mxPoint x="300" y="368.57" as="sourcePoint" />
            <mxPoint x="430" y="308.57" as="targetPoint" />
          </mxGeometry>
        </mxCell>
        <mxCell id="S5mDsbCWEBggxdEjm5oJ-8" value="connection" style="edgeLabel;html=1;align=center;verticalAlign=middle;resizable=0;points=[];" parent="S5mDsbCWEBggxdEjm5oJ-7" vertex="1" connectable="0">
          <mxGeometry x="0.0734" y="-4" relative="1" as="geometry">
            <mxPoint as="offset" />
          </mxGeometry>
        </mxCell>
        <mxCell id="S5mDsbCWEBggxdEjm5oJ-9" value="Extends" style="endArrow=block;endSize=16;endFill=0;html=1;rounded=0;" parent="1" source="JE6kaFAAXkQqQsIvlGsE-21" target="JE6kaFAAXkQqQsIvlGsE-17" edge="1">
          <mxGeometry width="160" relative="1" as="geometry">
            <mxPoint x="320" y="328.57" as="sourcePoint" />
            <mxPoint x="480" y="328.57" as="targetPoint" />
          </mxGeometry>
        </mxCell>
        <mxCell id="S5mDsbCWEBggxdEjm5oJ-10" value="&lt;span style=&quot;font-weight: normal;&quot;&gt;&amp;lt;StrategyB&amp;gt;&amp;lt;Adapter&amp;gt;&lt;/span&gt;&lt;br&gt;4GConnectionAdapter" style="swimlane;fontStyle=1;align=center;verticalAlign=top;childLayout=stackLayout;horizontal=1;startSize=42;horizontalStack=0;resizeParent=1;resizeParentMax=0;resizeLast=0;collapsible=1;marginBottom=0;whiteSpace=wrap;html=1;" parent="1" vertex="1">
          <mxGeometry x="120" y="426.57" width="160" height="112" as="geometry" />
        </mxCell>
        <mxCell id="S5mDsbCWEBggxdEjm5oJ-12" value="" style="line;strokeWidth=1;fillColor=none;align=left;verticalAlign=middle;spacingTop=-1;spacingLeft=3;spacingRight=3;rotatable=0;labelPosition=right;points=[];portConstraint=eastwest;strokeColor=inherit;" parent="S5mDsbCWEBggxdEjm5oJ-10" vertex="1">
          <mxGeometry y="42" width="160" height="8" as="geometry" />
        </mxCell>
        <mxCell id="S5mDsbCWEBggxdEjm5oJ-18" value="+ pict():String" style="text;strokeColor=none;fillColor=none;align=left;verticalAlign=top;spacingLeft=4;spacingRight=4;overflow=hidden;rotatable=0;points=[[0,0.5],[1,0.5]];portConstraint=eastwest;whiteSpace=wrap;html=1;" parent="S5mDsbCWEBggxdEjm5oJ-10" vertex="1">
          <mxGeometry y="50" width="160" height="26" as="geometry" />
        </mxCell>
        <mxCell id="S5mDsbCWEBggxdEjm5oJ-17" value="+ sendData (data:String, crc:Integer): String" style="text;strokeColor=none;fillColor=none;align=left;verticalAlign=top;spacingLeft=4;spacingRight=4;overflow=hidden;rotatable=0;points=[[0,0.5],[1,0.5]];portConstraint=eastwest;whiteSpace=wrap;html=1;" parent="S5mDsbCWEBggxdEjm5oJ-10" vertex="1">
          <mxGeometry y="76" width="160" height="36" as="geometry" />
        </mxCell>
        <mxCell id="S5mDsbCWEBggxdEjm5oJ-14" value="Extends" style="endArrow=block;endSize=16;endFill=0;html=1;rounded=0;" parent="1" source="S5mDsbCWEBggxdEjm5oJ-10" target="JE6kaFAAXkQqQsIvlGsE-17" edge="1">
          <mxGeometry width="160" relative="1" as="geometry">
            <mxPoint x="320" y="428.57" as="sourcePoint" />
            <mxPoint x="480" y="428.57" as="targetPoint" />
          </mxGeometry>
        </mxCell>
        <mxCell id="S5mDsbCWEBggxdEjm5oJ-19" value="" style="endArrow=classic;html=1;rounded=0;" parent="1" source="S5mDsbCWEBggxdEjm5oJ-10" target="JE6kaFAAXkQqQsIvlGsE-26" edge="1">
          <mxGeometry width="50" height="50" relative="1" as="geometry">
            <mxPoint x="349" y="295.57" as="sourcePoint" />
            <mxPoint x="210" y="295.57" as="targetPoint" />
          </mxGeometry>
        </mxCell>
        <mxCell id="S5mDsbCWEBggxdEjm5oJ-20" value="connection" style="edgeLabel;html=1;align=center;verticalAlign=middle;resizable=0;points=[];" parent="S5mDsbCWEBggxdEjm5oJ-19" vertex="1" connectable="0">
          <mxGeometry x="0.0734" y="-4" relative="1" as="geometry">
            <mxPoint as="offset" />
          </mxGeometry>
        </mxCell>
        <mxCell id="DESya9jkamPEPTqDq0Sg-1" value="&lt;i style=&quot;font-weight: normal;&quot;&gt;&amp;lt;Strategy&amp;gt;&lt;/i&gt;&lt;br&gt;CRC_Algorithm" style="swimlane;fontStyle=1;align=center;verticalAlign=top;childLayout=stackLayout;horizontal=1;startSize=42;horizontalStack=0;resizeParent=1;resizeParentMax=0;resizeLast=0;collapsible=1;marginBottom=0;whiteSpace=wrap;html=1;" vertex="1" parent="1">
          <mxGeometry x="339" y="110.00000000000006" width="160" height="90" as="geometry" />
        </mxCell>
        <mxCell id="DESya9jkamPEPTqDq0Sg-2" value="" style="line;strokeWidth=1;fillColor=none;align=left;verticalAlign=middle;spacingTop=-1;spacingLeft=3;spacingRight=3;rotatable=0;labelPosition=right;points=[];portConstraint=eastwest;strokeColor=inherit;" vertex="1" parent="DESya9jkamPEPTqDq0Sg-1">
          <mxGeometry y="42" width="160" height="8" as="geometry" />
        </mxCell>
        <mxCell id="DESya9jkamPEPTqDq0Sg-3" value="+ crcFor(data:String): Integer" style="text;strokeColor=none;fillColor=none;align=left;verticalAlign=top;spacingLeft=4;spacingRight=4;overflow=hidden;rotatable=0;points=[[0,0.5],[1,0.5]];portConstraint=eastwest;whiteSpace=wrap;html=1;" vertex="1" parent="DESya9jkamPEPTqDq0Sg-1">
          <mxGeometry y="50" width="160" height="40" as="geometry" />
        </mxCell>
        <mxCell id="DESya9jkamPEPTqDq0Sg-5" value="Extends" style="endArrow=block;endSize=16;endFill=0;html=1;rounded=0;" edge="1" parent="1" source="JE6kaFAAXkQqQsIvlGsE-1" target="DESya9jkamPEPTqDq0Sg-1">
          <mxGeometry width="160" relative="1" as="geometry">
            <mxPoint x="570" y="370" as="sourcePoint" />
            <mxPoint x="730" y="370" as="targetPoint" />
          </mxGeometry>
        </mxCell>
        <mxCell id="DESya9jkamPEPTqDq0Sg-6" value="Extends" style="endArrow=block;endSize=16;endFill=0;html=1;rounded=0;" edge="1" parent="1" source="JE6kaFAAXkQqQsIvlGsE-5" target="DESya9jkamPEPTqDq0Sg-1">
          <mxGeometry width="160" relative="1" as="geometry">
            <mxPoint x="570" y="370" as="sourcePoint" />
            <mxPoint x="730" y="370" as="targetPoint" />
          </mxGeometry>
        </mxCell>
      </root>
    </mxGraphModel>
  </diagram>
</mxfile>
